<?xml version="1.0" encoding="UTF-8"?>
<svg version="1.1" xmlns="http://www.w3.org/2000/svg" width="262" height="262">
<path d="M0 0 C86.46 0 172.92 0 262 0 C262 86.46 262 172.92 262 262 C175.54 262 89.08 262 0 262 C0 175.54 0 89.08 0 0 Z " fill="#FCFCFC" transform="translate(0,0)"/>
<path d="M0 0 C1.97636191 1.66874055 3.86191356 3.41635753 5.7578125 5.17578125 C8.2473428 7.20123535 10.76346666 8.55372367 13.625 10 C18.42959919 12.55265214 22.7028371 14.86904189 25 20 C25.7145789 25.43794539 25.52520476 30.71850585 24 36 C24.763125 36.20625 25.52625 36.4125 26.3125 36.625 C35.33173264 39.9881037 43.46933233 44.84045322 50 52 C50 52.66 50 53.32 50 54 C50.59554687 54.21398437 51.19109375 54.42796875 51.8046875 54.6484375 C57.11209791 57.9159891 59.72411819 66.35045361 61.375 72.1875 C62.97415144 81.94232375 61.76007559 89.91865325 56.46875 98.4765625 C55.05612173 100.43623799 53.71088379 102.29400445 52 104 C51.34 104 50.68 104 50 104 C49.484375 102.989375 48.96875 101.97875 48.4375 100.9375 C45.95122325 96.57329082 42.62428363 93.42084151 39 90 C37.3292232 88.33745363 35.66294506 86.67037998 34 85 C33.1028125 84.1028125 32.205625 83.205625 31.28125 82.28125 C26.85416667 77.85416667 22.42708333 73.42708333 18 69 C17.16355957 68.32541748 16.32711914 67.65083496 15.46533203 66.95581055 C12.08735692 62.90578631 11.75385259 59.36677035 11.0859375 54.23828125 C10.94475494 53.29244675 10.80357239 52.34661224 10.65811157 51.37211609 C10.21082104 48.35471475 9.79149965 45.3342917 9.375 42.3125 C8.94678804 39.30945823 8.51253876 36.30747499 8.07046509 33.30644226 C7.79751392 31.44334182 7.53307462 29.57896585 7.27890015 27.71321106 C6.04016796 18.60160299 6.04016796 18.60160299 3 10 C1.13081927 8.75864145 1.13081927 8.75864145 -1 8 C-2.6396875 7.195625 -2.6396875 7.195625 -4.3125 6.375 C-9.70426122 4.36451277 -13.81207595 4.26448416 -19.125 6.4375 C-23.81516338 9.01070248 -26.37117213 12.96472924 -28 18 C-28.27229422 23.27483305 -27.50797741 27.95939984 -26.20703125 33.0390625 C-26.02098328 33.7943071 -25.8349353 34.5495517 -25.64324951 35.3276825 C-25.0415624 37.76234924 -24.42819361 40.19384024 -23.8125 42.625 C-22.97158044 45.96425016 -22.13334431 49.30416368 -21.296875 52.64453125 C-21.09183853 53.4599791 -20.88680206 54.27542694 -20.67555237 55.11558533 C-19.54195446 59.66674385 -18.51801573 64.21507798 -17.640625 68.82421875 C-15.93772896 79.32039114 -15.93772896 79.32039114 -9.6875 87.5 C-7.79712029 88.67548275 -5.9004614 89.84088758 -4 91 C-1.27653726 93.09815969 1.3568548 95.3020096 4 97.5 C5.37995131 98.62691189 6.76143342 99.75195218 8.14453125 100.875 C9.13187256 101.67744141 9.13187256 101.67744141 10.13916016 102.49609375 C13.36334589 105.10183819 16.62043203 107.66605701 19.88671875 110.21875 C22.4060258 112.34223247 24.68126626 114.66094536 27 117 C19.60272752 117.06944095 12.20552506 117.12278091 4.80799294 117.15543652 C1.37318046 117.17110785 -2.06140941 117.19237214 -5.49609375 117.22631836 C-9.44268144 117.2650808 -13.38917828 117.27969712 -17.3359375 117.29296875 C-18.57242035 117.30845261 -19.8089032 117.32393646 -21.08285522 117.33988953 C-22.22388702 117.34011612 -23.36491882 117.34034271 -24.54052734 117.34057617 C-25.548685 117.34723801 -26.55684265 117.35389984 -27.59555054 117.36076355 C-28.38901886 117.24171158 -29.18248718 117.12265961 -30 117 C-32.02218427 113.96672359 -32.25130532 113.3861158 -32.26742554 109.98606873 C-32.27595551 109.17180923 -32.28448547 108.35754974 -32.29327393 107.51861572 C-32.29236755 106.62873962 -32.29146118 105.73886353 -32.29052734 104.82202148 C-32.29724457 103.88179642 -32.30396179 102.94157135 -32.31088257 101.97285461 C-32.32992246 98.85554757 -32.33379059 95.73845538 -32.3359375 92.62109375 C-32.34236411 90.45215262 -32.34909237 88.28321237 -32.35610962 86.11427307 C-32.36809938 81.56045525 -32.37178898 77.00671336 -32.37060547 72.45288086 C-32.37040284 66.63462377 -32.39763979 60.81685821 -32.43214989 54.99871731 C-32.45446313 50.51438695 -32.45844155 46.03017371 -32.45738602 41.54579353 C-32.45973782 39.40211363 -32.46853747 37.25843029 -32.48405075 35.11480522 C-32.50378826 32.1041085 -32.49784075 29.0944561 -32.48583984 26.08374023 C-32.49707886 25.20803375 -32.50831787 24.33232727 -32.51989746 23.43008423 C-32.44654533 16.13771078 -30.65594373 9.35487629 -26.0703125 3.5625 C-18.04951201 -2.87991003 -9.48516342 -5.84335447 0 0 Z " fill="#2976C0" transform="translate(116,100)"/>
<path d="M0 0 C4.17914423 0.7775152 6.47413068 2.05382698 8.9375 5.4375 C12.49863202 11.66094797 10.7586014 18.39753158 9 25 C11.94414048 26.96276032 12.80204933 27.25476379 16.125 27.5 C17.40375 27.665 18.6825 27.83 20 28 C20.33 28.66 20.66 29.32 21 30 C22.97888961 30.72693904 24.97954558 31.39816251 27 32 C26.67 33.32 26.34 34.64 26 36 C28.97 36.99 31.94 37.98 35 39 C35.495 41.97 35.495 41.97 36 45 C36.7425 45 37.485 45 38.25 45 C41.5656591 46.20569422 41.72899657 46.91787955 43.1875 50 C43.49042969 50.721875 43.79335937 51.44375 44.10546875 52.1875 C44.86362971 54.18354008 44.86362971 54.18354008 47 55 C50.25085134 65.11375972 49.62809414 73.3769506 45 83 C43.22541781 85.87011506 41.39555328 88.61129116 39 91 C38.34 91 37.68 91 37 91 C36.484375 89.989375 35.96875 88.97875 35.4375 87.9375 C32.95122325 83.57329082 29.62428363 80.42084151 26 77 C24.3292232 75.33745363 22.66294506 73.67037998 21 72 C20.1028125 71.1028125 19.205625 70.205625 18.28125 69.28125 C13.85416667 64.85416667 9.42708333 60.42708333 5 56 C4.09765625 55.34386719 3.1953125 54.68773437 2.265625 54.01171875 C-1.4027478 49.13531284 -1.00485213 43.76378707 -1.25 37.8125 C-1.37714204 35.44384384 -1.50719906 33.07534175 -1.640625 30.70703125 C-1.68735352 29.6600708 -1.73408203 28.61311035 -1.78222656 27.53442383 C-1.84230435 25.00789201 -1.84230435 25.00789201 -3 23 C-3.15159403 20.23632418 -3.23141393 17.51467843 -3.25 14.75 C-3.270625 13.99847656 -3.29125 13.24695313 -3.3125 12.47265625 C-3.34686743 7.54952136 -2.61417259 4.32026418 0 0 Z " fill="#2977C1" transform="translate(129,113)"/>
<path d="M0 0 C3.36145536 1.1507685 4.94856663 3.00604016 7.16796875 5.7421875 C8.13671875 8.859375 8.13671875 8.859375 8.66796875 12.6171875 C8.77560547 13.31682617 8.88324219 14.01646484 8.99414062 14.73730469 C9.24800863 16.39293575 9.49263682 18.04999721 9.73046875 19.70800781 C10.55698128 25.44009358 11.44354727 31.16261695 12.34155273 36.8838501 C12.66420754 38.96789369 12.97229315 41.05373792 13.27929688 43.14013672 C13.47974609 44.43709473 13.68019531 45.73405273 13.88671875 47.0703125 C14.06138672 48.2346582 14.23605469 49.39900391 14.41601562 50.59863281 C16.07627736 57.53938934 20.68412169 61.43586869 25.6796875 66.203125 C27.1745568 67.65810589 28.66867503 69.11385877 30.16210938 70.5703125 C32.5116225 72.85167031 34.86592575 75.12717968 37.23364258 77.38964844 C39.52328649 79.58249324 41.79019175 81.79685901 44.0546875 84.015625 C44.76711105 84.68564545 45.47953461 85.35566589 46.21354675 86.04598999 C49.54634235 89.34303057 51.04745982 90.83143251 51.67895508 95.60400391 C51.16796875 98.7421875 51.16796875 98.7421875 50.10546875 100.6796875 C47.00096703 102.38215619 44.65858921 102.09594221 41.16796875 101.7421875 C38.75033788 100.1157278 36.8777044 98.64957925 34.79296875 96.6796875 C33.6522595 95.6574935 32.51033027 94.63665931 31.3671875 93.6171875 C30.81853027 93.11960937 30.26987305 92.62203125 29.70458984 92.109375 C27.74434154 90.36527102 25.6962645 88.76396989 23.60546875 87.1796875 C19.48360359 84.02767296 15.49029177 80.7303722 11.55639648 77.34765625 C8.71743995 74.92849072 5.90250159 73.01078244 2.66796875 71.1796875 C-2.75594187 67.06998931 -3.07520571 59.98509902 -4.24560547 53.69970703 C-5.34293329 48.16555663 -6.68172536 42.68405022 -7.98141479 37.19458008 C-8.44878349 35.21462815 -8.9110718 33.23356719 -9.37133789 31.25195312 C-11.13713178 23.64342411 -11.13713178 23.64342411 -13.046875 16.0703125 C-13.97285024 12.14528313 -13.93064559 9.62395817 -12.83203125 5.7421875 C-8.56782407 0.71260981 -6.53911 -0.43003818 0 0 Z " fill="#3B444F" transform="translate(107.83203125,111.2578125)"/>
<path d="M0 0 C5.80827463 3.1192586 8.46382194 6.30500118 10.68786621 12.50415039 C11.90149702 16.58120824 12.40965059 20.72748964 12.953125 24.9375 C13.22931366 26.88037289 13.50669389 28.82307669 13.78515625 30.765625 C14.20987427 33.79217051 14.62585429 36.81905202 15.02099609 39.84960938 C15.41011236 42.79980947 15.83515573 45.74308771 16.265625 48.6875 C16.42698944 50.03158936 16.42698944 50.03158936 16.59161377 51.40283203 C17.89458449 59.97161666 22.84761751 64.98709591 29.375 70.375 C33.25070527 73.66597605 36.82136336 77.17989365 40.375 80.8125 C41.2 81.6375 42.025 82.4625 42.875 83.3125 C43.7 84.1375 44.525 84.9625 45.375 85.8125 C45.97828125 86.39257812 46.5815625 86.97265625 47.203125 87.5703125 C47.83734375 88.18648438 48.4715625 88.80265625 49.125 89.4375 C50.01445312 90.29214844 50.01445312 90.29214844 50.921875 91.1640625 C52.375 92.8125 52.375 92.8125 53.375 95.8125 C52.715 95.8125 52.055 95.8125 51.375 95.8125 C51.271875 96.76125 51.16875 97.71 51.0625 98.6875 C50.375 101.8125 50.375 101.8125 47.375 103.8125 C47.20025146 102.813396 47.02550293 101.81429199 46.84545898 100.78491211 C45.35907222 95.63699552 41.71120697 92.76210393 37.84765625 89.25390625 C36.31720006 87.80135072 34.78794095 86.34753307 33.25976562 84.89257812 C30.85904433 82.6336654 28.44998635 80.38642303 26.01782227 78.16137695 C15.22266334 68.23485738 9.17686605 61.75852988 8.375 46.8125 C8.03902217 44.75011302 7.67547751 42.69191987 7.27734375 40.640625 C6.95472206 38.78142448 6.63309531 36.92205102 6.3125 35.0625 C6.05654053 33.5923645 6.05654053 33.5923645 5.79541016 32.0925293 C5.08593065 28.00436582 4.38098659 23.91689014 3.74609375 19.81640625 C3.50052734 18.23666016 3.50052734 18.23666016 3.25 16.625 C3.12367187 15.76519531 2.99734375 14.90539062 2.8671875 14.01953125 C2.32483046 11.58753341 1.82216311 9.85395266 0.375 7.8125 C-4.03217885 6.38504207 -8.33299894 6.30108291 -12.625 8 C-14.72644314 9.90443285 -15.56580168 11.20982151 -16.625 13.8125 C-16.29214254 21.34436757 -14.46117478 28.6392598 -12.77856445 35.96704102 C-12.31771915 37.97723423 -11.86629272 39.98936963 -11.41601562 42.00195312 C-9.67964444 49.67759518 -7.70800348 57.20106594 -5.37036133 64.7199707 C-4.61160585 67.86807279 -4.48786784 70.58762391 -4.625 73.8125 C-3.7896875 74.18375 -3.7896875 74.18375 -2.9375 74.5625 C-0.20305328 76.04057931 1.98640812 77.82200676 4.375 79.8125 C5.82712891 81.01712891 5.82712891 81.01712891 7.30859375 82.24609375 C8.32050781 83.09300781 9.33242187 83.93992187 10.375 84.8125 C12.39562228 86.50025271 14.41645505 88.18775345 16.4375 89.875 C17.43007812 90.70386719 18.42265625 91.53273438 19.4453125 92.38671875 C23.71066604 95.91843148 28.03777124 99.36977769 32.375 102.8125 C33.23609375 103.53179687 34.0971875 104.25109375 34.984375 104.9921875 C37.53327829 106.93301909 39.22790677 107.4528322 42.375 107.8125 C41.715 108.8025 41.055 109.7925 40.375 110.8125 C39.6325 110.60625 38.89 110.4 38.125 110.1875 C34.99703932 109.76095991 34.04904259 110.31549325 31.375 111.8125 C30.58738281 111.13445312 29.79976562 110.45640625 28.98828125 109.7578125 C22.87649535 104.52563846 16.69112161 99.45637775 10.27514648 94.60205078 C5.57800206 91.02456209 1.07218817 87.24392366 -3.40039062 83.390625 C-5.74697698 81.37333205 -8.04511052 79.53242632 -10.625 77.8125 C-11.3894043 75.81420898 -11.3894043 75.81420898 -11.94921875 73.30859375 C-12.27962158 71.87942627 -12.27962158 71.87942627 -12.61669922 70.42138672 C-12.96112061 68.85155029 -12.96112061 68.85155029 -13.3125 67.25 C-13.82812247 64.99058729 -14.34512489 62.7314892 -14.86328125 60.47265625 C-15.14123535 59.24949707 -15.41918945 58.02633789 -15.70556641 56.76611328 C-16.68329793 52.51733301 -17.73537296 48.28808227 -18.79296875 44.05859375 C-19.16263114 42.57172452 -19.53217894 41.08482679 -19.90161133 39.59790039 C-20.44679122 37.4042802 -20.99398163 35.21128581 -21.5484314 33.01998901 C-22.06850523 30.96043979 -22.57819202 28.89855548 -23.0859375 26.8359375 C-23.38290527 25.64919434 -23.67987305 24.46245117 -23.98583984 23.23974609 C-25.28939313 16.24995195 -24.72070234 11.8282735 -21.125 5.83203125 C-15.92324328 -1.17137559 -8.08175405 -2.64747116 0 0 Z " fill="#EDF4F6" transform="translate(111.625,105.1875)"/>
<path d="M0 0 C5.61175982 3.27580777 9.41958646 8.25118509 11.40234375 14.40234375 C12.35017932 21.54603077 11.82248006 27.38233603 7.890625 33.49609375 C4.2524978 38.15595222 0.29979226 41.20101165 -5.59765625 42.40234375 C-13.06127916 43.08756337 -19.43475115 43.0173564 -25.59765625 38.40234375 C-30.76912142 33.34580003 -33.68565479 27.59404709 -33.91015625 20.33984375 C-33.25152424 12.0410804 -30.84189012 6.87495176 -24.59765625 1.40234375 C-16.3951279 -3.84551041 -8.75768589 -3.79184859 0 0 Z " fill="#3C444E" transform="translate(119.59765625,47.59765625)"/>
<path d="M0 0 C1.97636191 1.66874055 3.86191356 3.41635753 5.7578125 5.17578125 C8.2473428 7.20123535 10.76346666 8.55372367 13.625 10 C18.42959919 12.55265214 22.7028371 14.86904189 25 20 C25.7145789 25.43794539 25.52520476 30.71850585 24 36 C24.763125 36.20625 25.52625 36.4125 26.3125 36.625 C35.33173264 39.9881037 43.46933233 44.84045322 50 52 C50 52.66 50 53.32 50 54 C50.60199219 54.226875 51.20398438 54.45375 51.82421875 54.6875 C54.63387665 56.38237442 55.40005265 58.06415778 56.8125 61 C57.25207031 61.886875 57.69164062 62.77375 58.14453125 63.6875 C58.42683594 64.450625 58.70914063 65.21375 59 66 C58.67 66.66 58.34 67.32 58 68 C54 62.375 54 62.375 54 59 C52.35 58.67 50.7 58.34 49 58 C48.7834375 56.576875 48.7834375 56.576875 48.5625 55.125 C47.37038249 51.87141432 47.37038249 51.87141432 44.86328125 51.15625 C42.57773573 50.66828424 40.3201228 50.27688708 38 50 C38.33 48.68 38.66 47.36 39 46 C37.02 45.01 35.04 44.02 33 43 C33 42.34 33 41.68 33 41 C31.7625 41.061875 30.525 41.12375 29.25 41.1875 C25.49490248 41.37525488 23.84017099 40.43717376 21 38 C21.15597656 37.27554688 21.31195313 36.55109375 21.47265625 35.8046875 C22.79348129 29.24429822 23.59551332 24.41895712 20.6875 18.1875 C19.19409237 15.85238578 19.19409237 15.85238578 16.8125 15.1875 C15.9153125 15.0946875 15.9153125 15.0946875 15 15 C15 14.34 15 13.68 15 13 C14.34 13 13.68 13 13 13 C10.9589733 18.06626391 10.72511133 22.38709524 10.8125 27.75 C10.81314453 28.51699219 10.81378906 29.28398437 10.81445312 30.07421875 C10.76083394 34.16939139 10.76083394 34.16939139 12 38 C13.03409157 44.63861256 13.12835863 51.29682696 13 58 C12.67 58 12.34 58 12 58 C11.75092896 56.35185303 11.75092896 56.35185303 11.49682617 54.67041016 C10.87224787 50.55046579 10.23814457 46.43203226 9.60131836 42.31396484 C9.32825497 40.53961667 9.05769334 38.76488144 8.78979492 36.98974609 C7.35598163 23.04837426 7.35598163 23.04837426 3 10 C1.12611806 8.80016926 1.12611806 8.80016926 -1 8 C-2.6396875 7.195625 -2.6396875 7.195625 -4.3125 6.375 C-9.70426122 4.36451277 -13.81207595 4.26448416 -19.125 6.4375 C-23.90855202 9.06193904 -26.16382522 12.96338975 -28 18 C-28.5 21.5 -28.5 21.5 -28 25 C-27.92007813 25.80308594 -27.84015625 26.60617188 -27.7578125 27.43359375 C-27.53200276 29.62668536 -27.27771783 31.81297212 -27 34 C-27.66 33.01 -28.32 32.02 -29 31 C-29 58.39 -29 85.78 -29 114 C-13.16 114.33 2.68 114.66 19 115 C19 114.01 19 113.02 19 112 C17.35 111.67 15.7 111.34 14 111 C13.34 109.02 12.68 107.04 12 105 C15.73572828 106.62771018 18.61658392 108.98033305 21.75 111.5625 C22.73484375 112.36816406 23.7196875 113.17382812 24.734375 114.00390625 C25.48203125 114.66261719 26.2296875 115.32132812 27 116 C27 116.33 27 116.66 27 117 C19.60272752 117.06944095 12.20552506 117.12278091 4.80799294 117.15543652 C1.37318046 117.17110785 -2.06140941 117.19237214 -5.49609375 117.22631836 C-9.44268144 117.2650808 -13.38917828 117.27969712 -17.3359375 117.29296875 C-18.57242035 117.30845261 -19.8089032 117.32393646 -21.08285522 117.33988953 C-22.22388702 117.34011612 -23.36491882 117.34034271 -24.54052734 117.34057617 C-25.548685 117.34723801 -26.55684265 117.35389984 -27.59555054 117.36076355 C-28.38901886 117.24171158 -29.18248718 117.12265961 -30 117 C-32.02218427 113.96672359 -32.25130532 113.3861158 -32.26742554 109.98606873 C-32.27595551 109.17180923 -32.28448547 108.35754974 -32.29327393 107.51861572 C-32.29236755 106.62873962 -32.29146118 105.73886353 -32.29052734 104.82202148 C-32.29724457 103.88179642 -32.30396179 102.94157135 -32.31088257 101.97285461 C-32.32992246 98.85554757 -32.33379059 95.73845538 -32.3359375 92.62109375 C-32.34236411 90.45215262 -32.34909237 88.28321237 -32.35610962 86.11427307 C-32.36809938 81.56045525 -32.37178898 77.00671336 -32.37060547 72.45288086 C-32.37040284 66.63462377 -32.39763979 60.81685821 -32.43214989 54.99871731 C-32.45446313 50.51438695 -32.45844155 46.03017371 -32.45738602 41.54579353 C-32.45973782 39.40211363 -32.46853747 37.25843029 -32.48405075 35.11480522 C-32.50378826 32.1041085 -32.49784075 29.0944561 -32.48583984 26.08374023 C-32.49707886 25.20803375 -32.50831787 24.33232727 -32.51989746 23.43008423 C-32.44654533 16.13771078 -30.65594373 9.35487629 -26.0703125 3.5625 C-18.04951201 -2.87991003 -9.48516342 -5.84335447 0 0 Z " fill="#3675B0" transform="translate(116,100)"/>
<path d="M0 0 C2.43818936 3.65728405 2.6716692 6.93287895 3.125 11.1875 C3.21136719 11.93708984 3.29773438 12.68667969 3.38671875 13.45898438 C3.59838382 15.30517412 3.80015464 17.15249344 4 19 C3.34 18.01 2.68 17.02 2 16 C2 43.39 2 70.78 2 99 C17.84 99.33 33.68 99.66 50 100 C50 99.01 50 98.02 50 97 C48.35 96.67 46.7 96.34 45 96 C44.34 94.02 43.68 92.04 43 90 C46.73572828 91.62771018 49.61658392 93.98033305 52.75 96.5625 C53.73484375 97.36816406 54.7196875 98.17382812 55.734375 99.00390625 C56.48203125 99.66261719 57.2296875 100.32132812 58 101 C58 101.33 58 101.66 58 102 C50.60272752 102.06944095 43.20552506 102.12278091 35.80799294 102.15543652 C32.37318046 102.17110785 28.93859059 102.19237214 25.50390625 102.22631836 C21.55731856 102.2650808 17.61082172 102.27969712 13.6640625 102.29296875 C12.42757965 102.30845261 11.1910968 102.32393646 9.91714478 102.33988953 C8.77611298 102.34011612 7.63508118 102.34034271 6.45947266 102.34057617 C5.451315 102.34723801 4.44315735 102.35389984 3.40444946 102.36076355 C2.61098114 102.24171158 1.81751282 102.12265961 1 102 C-1.03747682 98.94378477 -1.24984044 98.35826687 -1.24723816 94.92550659 C-1.25143265 94.09824066 -1.25562714 93.27097473 -1.25994873 92.41864014 C-1.25432922 91.51462463 -1.24870972 90.61060913 -1.24291992 89.67919922 C-1.24481827 88.72451752 -1.24671661 87.76983582 -1.24867249 86.78622437 C-1.2523821 83.62562897 -1.24167468 80.46526252 -1.23046875 77.3046875 C-1.22927711 75.11418688 -1.22882375 72.92368574 -1.2290802 70.73318481 C-1.2275151 66.14158939 -1.21922223 61.55007191 -1.20581055 56.95849609 C-1.18880068 51.05882104 -1.18499675 45.15923154 -1.18575573 39.25953484 C-1.18548448 34.73698096 -1.18001081 30.21444596 -1.17275429 25.69189835 C-1.16956186 23.51567859 -1.16759888 21.33945668 -1.16686058 19.16323471 C-1.16470421 16.12945622 -1.15597589 13.09577045 -1.14526367 10.06201172 C-1.14571686 9.15394775 -1.14617004 8.24588379 -1.14663696 7.31030273 C-1.11447501 1.11447501 -1.11447501 1.11447501 0 0 Z " fill="#4A81B5" transform="translate(85,115)"/>
<path d="M0 0 C5.91137108 3.17462521 8.68249387 6.70873371 10.9921875 12.84765625 C11.43876202 15.13976833 11.09055301 16.61192945 10.375 18.8125 C10.045 17.1625 9.715 15.5125 9.375 13.8125 C7.395 14.1425 5.415 14.4725 3.375 14.8125 C0.375 10.0625 0.375 10.0625 0.375 7.8125 C-7.342505 6.52376678 -7.342505 6.52376678 -14.625 8.8125 C-14.955 7.4925 -15.285 6.1725 -15.625 4.8125 C-16.285 4.8125 -16.945 4.8125 -17.625 4.8125 C-17.955 6.4625 -18.285 8.1125 -18.625 9.8125 C-19.615 10.1425 -20.605 10.4725 -21.625 10.8125 C-22.43063638 12.91834438 -22.43063638 12.91834438 -22.8125 15.375 C-23.05033203 16.61443359 -23.05033203 16.61443359 -23.29296875 17.87890625 C-23.40253906 18.51699219 -23.51210937 19.15507813 -23.625 19.8125 C-23.955 19.8125 -24.285 19.8125 -24.625 19.8125 C-25.31233547 13.35154659 -23.48745733 9.01273553 -19.625 3.8125 C-13.84522858 -1.46154143 -7.35065602 -2.40797352 0 0 Z " fill="#E7F1F4" transform="translate(111.625,105.1875)"/>
<path d="M0 0 C19.14 0.33 38.28 0.66 58 1 C58.495 1.99 58.495 1.99 59 3 C55.10023593 3.72444694 51.41823083 4.12301012 47.45361328 4.11352539 C46.39296661 4.11344986 45.33231995 4.11337433 44.23953247 4.11329651 C43.11118988 4.10813522 41.98284729 4.10297394 40.8203125 4.09765625 C39.06846146 4.09553383 39.06846146 4.09553383 37.28121948 4.09336853 C33.56245326 4.08778498 29.84374793 4.07523544 26.125 4.0625 C23.5989592 4.05748288 21.07291746 4.05292034 18.546875 4.04882812 C12.36456267 4.03782093 6.18228569 4.02109913 0 4 C0 2.68 0 1.36 0 0 Z " fill="#E5FDFE" transform="translate(85,216)"/>
<path d="M0 0 C0.66 0 1.32 0 2 0 C2 0.66 2 1.32 2 2 C4.475 2.495 4.475 2.495 7 3 C7 3.66 7 4.32 7 5 C-5.54 5 -18.08 5 -31 5 C-31.33 4.01 -31.66 3.02 -32 2 C-31.06615479 1.97494385 -30.13230957 1.9498877 -29.17016602 1.92407227 C-25.71674811 1.82913072 -22.2635104 1.72988742 -18.81030273 1.62768555 C-17.31360731 1.58428187 -15.81686061 1.54261087 -14.32006836 1.50268555 C-12.17285688 1.44511384 -10.02590479 1.38138284 -7.87890625 1.31640625 C-6.5854126 1.27974854 -5.29191895 1.24309082 -3.95922852 1.20532227 C-1.11444992 1.3332722 -1.11444992 1.3332722 0 0 Z " fill="#2576C8" transform="translate(128,209)"/>
<path d="M0 0 C5.36932824 -0.32541383 9.96088837 1.32029612 15 3 C15.144375 3.639375 15.28875 4.27875 15.4375 4.9375 C15.623125 5.618125 15.80875 6.29875 16 7 C16.639375 7.309375 17.27875 7.61875 17.9375 7.9375 C20 9 20 9 21.0859375 11.12109375 C22.15918954 14.50137903 22.45842546 17.58748828 22.6875 21.125 C22.77386719 22.34445313 22.86023438 23.56390625 22.94921875 24.8203125 C23 28 23 28 22 31 C21.34 31 20.68 31 20 31 C20.05800781 29.98679688 20.11601562 28.97359375 20.17578125 27.9296875 C20.58294205 19.94235654 20.58294205 19.94235654 18.1875 12.4375 C14.87175885 9.39807061 10.6287985 7.45990939 6.62109375 5.4921875 C3.92540614 3.95753375 2.08139472 2.2821881 0 0 Z " fill="#E0F3FB" transform="translate(120,104)"/>
<path d="M0 0 C3.73572828 1.62771018 6.61658392 3.98033305 9.75 6.5625 C10.73484375 7.36816406 11.7196875 8.17382812 12.734375 9.00390625 C13.85585937 9.99197266 13.85585937 9.99197266 15 11 C15 11.33 15 11.66 15 12 C-3.81 12 -22.62 12 -42 12 C-42 11.67 -42 11.34 -42 11 C-16.755 10.505 -16.755 10.505 9 10 C8.34 9.67 7.68 9.34 7 9 C7 8.34 7 7.68 7 7 C4.525 6.505 4.525 6.505 2 6 C1.34 4.02 0.68 2.04 0 0 Z " fill="#4F7CA1" transform="translate(128,205)"/>
<path d="M0 0 C0.33 0 0.66 0 1 0 C1.09909668 0.59425781 1.19819336 1.18851563 1.30029297 1.80078125 C3.22609208 15.58601458 3.22609208 15.58601458 11.25 26.1875 C12.82227737 27.14342603 14.40291977 28.0861152 16 29 C16.33 29.66 16.66 30.32 17 31 C11.48665758 29.62166439 6.84588244 27.20403557 3 23 C1.871694 20.36462803 1.16490254 17.87549154 0.5703125 15.07421875 C0.38210937 14.38972656 0.19390625 13.70523438 0 13 C-0.66 12.67 -1.32 12.34 -2 12 C-1.85831863 10.56208484 -1.71148957 9.1246763 -1.5625 7.6875 C-1.48128906 6.88699219 -1.40007812 6.08648437 -1.31640625 5.26171875 C-1 3 -1 3 0 0 Z " fill="#3872AD" transform="translate(96,162)"/>
<path d="M0 0 C3.83278278 0.53839394 6.02857729 1.46295497 8.98828125 3.94140625 C9.69404297 4.52470703 10.39980469 5.10800781 11.12695312 5.70898438 C11.84818359 6.32064453 12.56941406 6.93230469 13.3125 7.5625 C14.05306641 8.17802734 14.79363281 8.79355469 15.55664062 9.42773438 C17.37815502 10.94370442 19.19209988 12.46784356 21 14 C20.34 14.66 19.68 15.32 19 16 C16.12312519 15.77870194 14.46048856 15.36521506 12.1875 13.5625 C11 12 11 12 11 10 C8.03 9.505 8.03 9.505 5 9 C4.67 8.01 4.34 7.02 4 6 C3.01 5.34 2.02 4.68 1 4 C0.3125 1.875 0.3125 1.875 0 0 Z " fill="#F3F6EF" transform="translate(123,194)"/>
<path d="M0 0 C1.6875 1.375 1.6875 1.375 3 3 C5.09989652 4.17574711 5.09989652 4.17574711 7 5 C6.67 5.66 6.34 6.32 6 7 C-0.27 6.67 -6.54 6.34 -13 6 C-13.33 5.01 -13.66 4.02 -14 3 C-9.1141349 0.60692322 -5.56782839 -0.64244174 0 0 Z " fill="#377EBF" transform="translate(109,97)"/>
<path d="M0 0 C1.61854031 3.23708061 1.34238623 6.79294885 1.5234375 10.37109375 C2.051044 13.28157878 2.71718018 14.19938009 5 16 C4.67 16.66 4.34 17.32 4 18 C3.34 17.67 2.68 17.34 2 17 C1.67 17.66 1.34 18.32 1 19 C-3.0289552 15.17765789 -4.8391359 13.21188141 -5.25 7.5625 C-4.9889288 3.84223537 -4.39300726 0 0 0 Z " fill="#F8F9FA" transform="translate(127,154)"/>
<path d="M0 0 C3.23372789 3.23372789 3.61501682 7.5178461 4.6875 11.875 C4.92533203 12.78636719 5.16316406 13.69773438 5.40820312 14.63671875 C5.62798828 15.51714844 5.84777344 16.39757812 6.07421875 17.3046875 C6.27619873 18.10890137 6.47817871 18.91311523 6.6862793 19.74169922 C7.02775163 22.19976853 6.75409837 23.65542353 6 26 C5.649375 27.2375 5.29875 28.475 4.9375 29.75 C4.628125 30.8225 4.31875 31.895 4 33 C3.67 33 3.34 33 3 33 C3 30.03 3 27.06 3 24 C3.66 24 4.32 24 5 24 C4.67 22.02 4.34 20.04 4 18 C3.01 18 2.02 18 1 18 C0.34 18.66 -0.32 19.32 -1 20 C-0.67 13.4 -0.34 6.8 0 0 Z " fill="#3475AE" transform="translate(89,136)"/>
<path d="M0 0 C1.32 0 2.64 0 4 0 C7.21819111 7.77729519 7.32098157 14.64259099 7 23 C5 20 5 20 4.625 16.0625 C4.22787102 12.01766784 2.91422094 10.82315153 0 8 C-0.8125 4.3125 -0.8125 4.3125 -1 1 C-0.67 0.67 -0.34 0.34 0 0 Z " fill="#F5FBFA" transform="translate(117,119)"/>
<path d="M0 0 C0.66 0 1.32 0 2 0 C3.23201667 4.21002014 2.81004862 6.31541895 0.8125 10.1875 C0.38582031 11.04730469 -0.04085937 11.90710938 -0.48046875 12.79296875 C-2.12831815 15.18637469 -3.32125904 15.9732449 -6 17 C-6.4390692 8.36497244 -6.4390692 8.36497244 -3 4 C-2.34 3.67 -1.68 3.34 -1 3 C-0.67 2.01 -0.34 1.02 0 0 Z " fill="#F7FAF9" transform="translate(94,110)"/>
<path d="M0 0 C1.485 0.99 1.485 0.99 3 2 C3.35893593 4.56550925 3.55765553 6.92647905 3.625 9.5 C3.62227223 14.39957908 3.62227223 14.39957908 5 19 C6.03409157 25.63861256 6.12835863 32.29682696 6 39 C5.67 39 5.34 39 5 39 C4.27822742 34.89395864 3.56658485 30.78632007 2.86376953 26.67700195 C2.62394844 25.28298148 2.38149559 23.88941084 2.13623047 22.49633789 C0.81050415 14.95593125 -0.34018051 7.67957505 0 0 Z " fill="#4077AB" transform="translate(123,119)"/>
<path d="M0 0 C0.33 0 0.66 0 1 0 C1.0272415 1.41655793 1.04650467 2.83327045 1.0625 4.25 C1.07410156 5.03890625 1.08570313 5.8278125 1.09765625 6.640625 C1.00385306 8.90691002 0.63241063 10.8288895 0 13 C0.804375 13.226875 1.60875 13.45375 2.4375 13.6875 C13.96774194 17.93548387 13.96774194 17.93548387 16 22 C13.69 21.34 11.38 20.68 9 20 C9 19.34 9 18.68 9 18 C7.7625 18.061875 6.525 18.12375 5.25 18.1875 C1.49490248 18.37525488 -0.15982901 17.43717376 -3 15 C-2.68917128 13.24970238 -2.37626821 11.49977306 -2.0625 9.75 C-1.88847656 8.77546875 -1.71445313 7.8009375 -1.53515625 6.796875 C-1.09620271 4.50278205 -0.59651408 2.25708029 0 0 Z " fill="#3370A7" transform="translate(140,123)"/>
<path d="M0 0 C0.66 0.33 1.32 0.66 2 1 C4.66805449 9.53777436 2.99193474 18.17630074 -1 26 C-3.140625 28.32421875 -3.140625 28.32421875 -5 30 C-5 29.01 -5 28.02 -5 27 C-4.34 27 -3.68 27 -3 27 C-2.855625 25.9275 -2.71125 24.855 -2.5625 23.75 C-2 20 -2 20 -1.48461914 18.00878906 C-0.67301976 14.64463807 -0.62313134 11.19483076 -0.4375 7.75 C-0.37272461 6.63238281 -0.37272461 6.63238281 -0.30664062 5.4921875 C-0.20103275 3.661651 -0.10005799 1.83084824 0 0 Z " fill="#3870A9" transform="translate(175,170)"/>
<path d="M0 0 C1.15224028 0.92961422 2.29659176 1.8690125 3.4375 2.8125 C4.07558594 3.33457031 4.71367187 3.85664063 5.37109375 4.39453125 C7 6 7 6 8 9 C7.34 9 6.68 9 6 9 C5.896875 9.94875 5.79375 10.8975 5.6875 11.875 C5 15 5 15 2 17 C1.63631108 15.39796533 1.28438048 13.79325797 0.9375 12.1875 C0.74027344 11.29417969 0.54304687 10.40085938 0.33984375 9.48046875 C0 7 0 7 1 4 C0.34 4 -0.32 4 -1 4 C-0.67 2.68 -0.34 1.36 0 0 Z " fill="#F0EFEC" transform="translate(157,192)"/>
<path d="M0 0 C1.11375 0.7115625 1.11375 0.7115625 2.25 1.4375 C4.61050015 2.77869327 6.36648477 3.512312 9 4 C8.67 5.32 8.34 6.64 8 8 C8.66 8 9.32 8 10 8 C10.33 8.99 10.66 9.98 11 11 C10.34 11 9.68 11 9 11 C8.67 11.66 8.34 12.32 8 13 C6.65176834 11.78719339 5.32183918 10.55401909 4 9.3125 C3.2575 8.62800781 2.515 7.94351563 1.75 7.23828125 C-0.3231932 4.58663012 -0.36795695 3.2828659 0 0 Z " fill="#F6F8FA" transform="translate(148,188)"/>
<path d="M0 0 C3.37872681 3.37872681 3.18618403 6.67652246 3.25 11.25 C3.22580059 16.66461736 2.62704279 20.293215 0 25 C-0.99 25 -1.98 25 -3 25 C-2.7834375 24.36835938 -2.566875 23.73671875 -2.34375 23.0859375 C0.08346203 15.28739514 0.32033622 8.12704852 0 0 Z " fill="#E4FBFD" transform="translate(177,171)"/>
<path d="M0 0 C3.36525621 0.46417327 5.40608501 1.86928411 8 4 C7.67 4.99 7.34 5.98 7 7 C3.51377324 7.87155669 1.42614267 7.90692012 -2 7 C-6.48097094 6.83403811 -10.60102504 7.14166342 -15 8 C-15.33 6.68 -15.66 5.36 -16 4 C-15.34 3.67 -14.68 3.34 -14 3 C-14 3.66 -14 4.32 -14 5 C-7.73 5 -1.46 5 5 5 C4.01 4.34 3.02 3.68 2 3 C1.01 2.34 0.02 1.68 -1 1 C-0.67 0.67 -0.34 0.34 0 0 Z " fill="#2E6CA4" transform="translate(110,98)"/>
<path d="M0 0 C0.99 0.33 1.98 0.66 3 1 C2.54625 1.4125 2.0925 1.825 1.625 2.25 C-0.05950374 4.06408095 -0.99265971 5.75285627 -2 8 C-2.66 8 -3.32 8 -4 8 C-4 8.99 -4 9.98 -4 11 C-7.21043882 9.61811547 -9.04936365 8.07578097 -11.25 5.375 C-11.77078125 4.74335938 -12.2915625 4.11171875 -12.828125 3.4609375 C-13.21484375 2.97882813 -13.6015625 2.49671875 -14 2 C-11 2 -11 2 -8.8125 4 C-8.214375 4.66 -7.61625 5.32 -7 6 C-6.52949219 5.55527344 -6.05898437 5.11054688 -5.57421875 4.65234375 C-4.64029297 3.80349609 -4.64029297 3.80349609 -3.6875 2.9375 C-3.07261719 2.36902344 -2.45773438 1.80054688 -1.82421875 1.21484375 C-1.22222656 0.81394531 -0.62023437 0.41304687 0 0 Z " fill="#2F75B2" transform="translate(158,176)"/>
<path d="M0 0 C0.66 0.66 1.32 1.32 2 2 C1.01 2.99 0.02 3.98 -1 5 C-6.875 3.125 -6.875 3.125 -8 2 C-8.99 3.32 -9.98 4.64 -11 6 C-11.99 5.01 -12.98 4.02 -14 3 C-8.95379787 -1.16311675 -6.38531272 -1.4899063 0 0 Z " fill="#454D57" transform="translate(110,112)"/>
<path d="M0 0 C2.9375 0.375 2.9375 0.375 6 1 C6.33 1.66 6.66 2.32 7 3 C7.61875 2.79375 8.2375 2.5875 8.875 2.375 C9.926875 2.189375 9.926875 2.189375 11 2 C13.3773161 4.3773161 13.67028521 5.70285207 14 9 C13.34 9.66 12.68 10.32 12 11 C9.99702215 9.35767739 7.99756092 7.71138756 6 6.0625 C5.42765625 5.59392578 4.8553125 5.12535156 4.265625 4.64257812 C2.82502935 3.45065672 1.41025129 2.22767412 0 1 C0 0.67 0 0.34 0 0 Z " fill="#444A55" transform="translate(122,190)"/>
<path d="M0 0 C0.92232422 0.10828125 0.92232422 0.10828125 1.86328125 0.21875 C3.07564453 0.35796875 3.07564453 0.35796875 4.3125 0.5 C5.51326172 0.63921875 5.51326172 0.63921875 6.73828125 0.78125 C9.11896555 1.04813463 9.11896555 1.04813463 12 1 C14.01151741 1.63106429 16.01363702 2.29373761 18 3 C17.01 4.485 17.01 4.485 16 6 C15.2575 5.79375 14.515 5.5875 13.75 5.375 C10.62203932 4.94845991 9.67404259 5.50299325 7 7 C5.83040013 6.02433888 4.66438823 5.044375 3.5 4.0625 C2.8503125 3.51722656 2.200625 2.97195312 1.53125 2.41015625 C1.0259375 1.94480469 0.520625 1.47945312 0 1 C0 0.67 0 0.34 0 0 Z " fill="#E8EDEE" transform="translate(136,210)"/>
<path d="M0 0 C2.86724686 0.57344937 3.8614515 0.8614515 6 3 C6.66 3.33 7.32 3.66 8 4 C8 4.66 8 5.32 8 6 C10.475 6.99 10.475 6.99 13 8 C13 9.32 13 10.64 13 12 C8.48548039 10.53942013 5.42147956 8.26941381 2 5 C0.625 2.1875 0.625 2.1875 0 0 Z " fill="#474A55" transform="translate(88,77)"/>
<path d="M0 0 C0.33 0 0.66 0 1 0 C1.20625 1.010625 1.4125 2.02125 1.625 3.0625 C3.39026496 9.2913635 8.45039553 13.62538032 13 18 C12.01 18.33 11.02 18.66 10 19 C7.78759582 17.3995374 5.94489157 15.87887697 4 14 C3.21625 13.2575 2.4325 12.515 1.625 11.75 C-0.67930251 7.85041113 -0.34685514 4.42240298 0 0 Z " fill="#DCF1F9" transform="translate(128,158)"/>
<path d="M0 0 C2.43818936 3.65728405 2.6716692 6.93287895 3.125 11.1875 C3.21136719 11.93708984 3.29773438 12.68667969 3.38671875 13.45898438 C3.59838382 15.30517412 3.80015464 17.15249344 4 19 C3.34 18.01 2.68 17.02 2 16 C1.67 20.29 1.34 24.58 1 29 C0.67 29 0.34 29 0 29 C0 19.43 0 9.86 0 0 Z " fill="#2F679F" transform="translate(85,115)"/>
<path d="M0 0 C0.33 0 0.66 0 1 0 C1.22174933 1.45635371 1.42698698 2.91522956 1.625 4.375 C1.74101562 5.18710938 1.85703125 5.99921875 1.9765625 6.8359375 C1.98429688 7.55007812 1.99203125 8.26421875 2 9 C1.34 9.66 0.68 10.32 0 11 C-1.32 11 -2.64 11 -4 11 C-4 10.34 -4 9.68 -4 9 C-5.32 9 -6.64 9 -8 9 C-7.67 7.68 -7.34 6.36 -7 5 C-7 5.99 -7 6.98 -7 8 C-4.35247996 5.42215154 -2.05567935 3.08351902 0 0 Z " fill="#EEF8FA" transform="translate(173,196)"/>
<path d="M0 0 C0.99 0 1.98 0 3 0 C3.33 1.32 3.66 2.64 4 4 C4.66 4 5.32 4 6 4 C7.01866229 5.65532623 8.01810813 7.32260138 9 9 C9.66 9.33 10.32 9.66 11 10 C11 10.66 11 11.32 11 12 C11.99 12.33 12.98 12.66 14 13 C14.6875 15.0625 14.6875 15.0625 15 17 C9.27232128 13.07244888 3.95027194 8.78961731 0 3 C0 2.01 0 1.02 0 0 Z " fill="#3972A4" transform="translate(129,161)"/>
<path d="M0 0 C3.82097239 0.53069061 6.06171403 1.49701566 9 4 C8.34 5.32 7.68 6.64 7 8 C5.68 7.67 4.36 7.34 3 7 C3 6.34 3 5.68 3 5 C1.68 4.67 0.36 4.34 -1 4 C-0.67 2.68 -0.34 1.36 0 0 Z " fill="#F7F8F4" transform="translate(106,180)"/>
<path d="M0 0 C0.5775 0.226875 1.155 0.45375 1.75 0.6875 C0.8425 1.30625 -0.065 1.925 -1 2.5625 C-5.21645406 6.00960107 -6.58626607 10.64736486 -8.25 15.6875 C-9.3515625 13.97265625 -9.3515625 13.97265625 -10.25 11.6875 C-9.23941387 7.46207827 -7.21786754 3.71585926 -4.25 0.5625 C-2.25 -0.3125 -2.25 -0.3125 0 0 Z " fill="#E0F7FB" transform="translate(93.25,100.3125)"/>
<path d="M0 0 C0.66 0 1.32 0 2 0 C2.93174123 5.78591754 2.924141 10.72004793 2.0625 16.5 C1.96259766 17.22703125 1.86269531 17.9540625 1.75976562 18.703125 C1.51565275 20.47003721 1.25914703 22.23523014 1 24 C0.67 24 0.34 24 0 24 C0 16.08 0 8.16 0 0 Z " fill="#247ACB" transform="translate(87,136)"/>
<path d="M0 0 C3.83264178 1.5056807 5.537762 3.76831262 8 7 C9.31494512 8.35147138 10.64264858 9.69112542 12 11 C11.67 11.99 11.34 12.98 11 14 C9.53238987 12.61392377 8.07625811 11.21568805 6.625 9.8125 C5.81289062 9.03519531 5.00078125 8.25789062 4.1640625 7.45703125 C2.01140148 5.012945 0.99367294 3.07383443 0 0 Z " fill="#F2F3F2" transform="translate(127,169)"/>
<path d="M0 0 C0.33 0 0.66 0 1 0 C2.58713619 5.55497665 3.3920214 10.2176844 3 16 C2.34 16.99 1.68 17.98 1 19 C0.34 18.67 -0.32 18.34 -1 18 C-0.9278125 17.3709375 -0.855625 16.741875 -0.78125 16.09375 C-0.19534084 10.69036555 0.10062919 5.43397617 0 0 Z " fill="#424A53" transform="translate(100,128)"/>
<path d="M0 0 C5.2860826 2.69486564 8.57467775 5.12151073 12 10 C12 10.99 12 11.98 12 13 C11.34 13 10.68 13 10 13 C9.4225 11.865625 8.845 10.73125 8.25 9.5625 C6.64507365 6.62689703 6.64507365 6.62689703 3.75 5.0625 C2.88375 5.0315625 2.88375 5.0315625 2 5 C2 4.34 2 3.68 2 3 C0.68 2.67 -0.64 2.34 -2 2 C-1.34 1.34 -0.68 0.68 0 0 Z " fill="#457BAC" transform="translate(129,110)"/>
<path d="M0 0 C2.93879484 1.35236577 5.29232911 2.89942659 7.75 5 C8.67039063 5.7734375 8.67039063 5.7734375 9.609375 6.5625 C11 8 11 8 11 10 C9.68 9.67 8.36 9.34 7 9 C7 8.34 7 7.68 7 7 C5.35 6.67 3.7 6.34 2 6 C1.34 4.02 0.68 2.04 0 0 Z " fill="#4378B0" transform="translate(128,205)"/>
<path d="M0 0 C0.66 0 1.32 0 2 0 C2.04898438 0.99902344 2.09796875 1.99804688 2.1484375 3.02734375 C2.22320312 4.31769531 2.29796875 5.60804688 2.375 6.9375 C2.44460937 8.22527344 2.51421875 9.51304687 2.5859375 10.83984375 C2.72257812 11.88269531 2.85921875 12.92554688 3 14 C3.66 14.33 4.32 14.66 5 15 C4.34 15 3.68 15 3 15 C2.67 15.66 2.34 16.32 2 17 C1.49193553 15.27318563 0.99389533 13.54342021 0.5 11.8125 C0.08234375 10.36810547 0.08234375 10.36810547 -0.34375 8.89453125 C-0.97032731 6.13087778 -1.20035452 3.81998991 -1 1 C-0.67 0.67 -0.34 0.34 0 0 Z " fill="#CFEDF9" transform="translate(98,162)"/>
<path d="M0 0 C0.66 0.33 1.32 0.66 2 1 C1.67 1.99 1.34 2.98 1 4 C0.34 4 -0.32 4 -1 4 C-1 4.66 -1 5.32 -1 6 C0.32 6 1.64 6 3 6 C4.35439668 8.70879335 4.06501451 11.00933268 4 14 C1 10.25 1 10.25 1 8 C0.38125 7.71125 -0.2375 7.4225 -0.875 7.125 C-3 6 -3 6 -5 4 C-4.360625 3.71125 -3.72125 3.4225 -3.0625 3.125 C-0.84793921 2.17176549 -0.84793921 2.17176549 0 0 Z " fill="#3E77B2" transform="translate(118,102)"/>
<path d="M0 0 C0.66 0 1.32 0 2 0 C4 3 4 3 3.6875 5.4375 C3.3471875 6.7059375 3.3471875 6.7059375 3 8 C2.814375 8.763125 2.62875 9.52625 2.4375 10.3125 C2.293125 10.869375 2.14875 11.42625 2 12 C1.34 12 0.68 12 0 12 C0 8.04 0 4.08 0 0 Z " fill="#207ACA" transform="translate(126,121)"/>
<path d="M0 0 C0.66 0 1.32 0 2 0 C1.1875 3.4375 1.1875 3.4375 0 7 C-0.99 7.33 -1.98 7.66 -3 8 C-3.80563638 10.10584438 -3.80563638 10.10584438 -4.1875 12.5625 C-4.34605469 13.38878906 -4.50460938 14.21507813 -4.66796875 15.06640625 C-4.77753906 15.70449219 -4.88710937 16.34257813 -5 17 C-5.33 17 -5.66 17 -6 17 C-6.69751232 10.44338418 -4.56156319 6.44160146 -1 1 C-0.67 0.67 -0.34 0.34 0 0 Z " fill="#C8E4F5" transform="translate(93,108)"/>
<path d="M0 0 C1.37478516 0.01740234 1.37478516 0.01740234 2.77734375 0.03515625 C3.69644531 0.04417969 4.61554688 0.05320312 5.5625 0.0625 C6.27277344 0.07410156 6.98304687 0.08570312 7.71484375 0.09765625 C7.71484375 0.75765625 7.71484375 1.41765625 7.71484375 2.09765625 C6.72484375 2.09765625 5.73484375 2.09765625 4.71484375 2.09765625 C4.38484375 3.08765625 4.05484375 4.07765625 3.71484375 5.09765625 C2.72484375 5.09765625 1.73484375 5.09765625 0.71484375 5.09765625 C0.71484375 4.10765625 0.71484375 3.11765625 0.71484375 2.09765625 C-0.60515625 1.76765625 -1.92515625 1.43765625 -3.28515625 1.09765625 C-2.28515625 0.09765625 -2.28515625 0.09765625 0 0 Z " fill="#FAFAFB" transform="translate(100.28515625,105.90234375)"/>
<path d="M0 0 C1.12894876 0.93274109 2.25300876 1.87140122 3.375 2.8125 C4.00148437 3.33457031 4.62796875 3.85664063 5.2734375 4.39453125 C7 6 7 6 9 9 C7.35 8.67 5.7 8.34 4 8 C3.67 7.01 3.34 6.02 3 5 C0.99983534 3.79117904 0.99983534 3.79117904 -1 3 C-0.67 2.01 -0.34 1.02 0 0 Z " fill="#D2ECF4" transform="translate(143,178)"/>
<path d="M0 0 C1.65 0.99 3.3 1.98 5 3 C4.67 3.99 4.34 4.98 4 6 C4.66 6.33 5.32 6.66 6 7 C3.36 6.67 0.72 6.34 -2 6 C-1.34 4.02 -0.68 2.04 0 0 Z " fill="#3B79B5" transform="translate(156,144)"/>
<path d="M0 0 C5.73783544 0.44137196 10.29517116 2.82052619 15 6 C15.33 6.66 15.66 7.32 16 8 C13.69 7.34 11.38 6.68 9 6 C9 5.34 9 4.68 9 4 C6.03 3.01 3.06 2.02 0 1 C0 0.67 0 0.34 0 0 Z " fill="#40709E" transform="translate(140,137)"/>
<path d="M0 0 C0.33 0 0.66 0 1 0 C1.36 5.4 1.36 5.4 -0.125 7.875 C-2.78034983 9.4682099 -4.96789518 9.20214032 -8 9 C-7.34 8.01 -6.68 7.02 -6 6 C-4.68 6 -3.36 6 -2 6 C-2 5.01 -2 4.02 -2 3 C-1.34 2.01 -0.68 1.02 0 0 Z " fill="#2D3239" transform="translate(158,204)"/>
<path d="M0 0 C1.15224028 0.92961422 2.29659176 1.8690125 3.4375 2.8125 C4.07558594 3.33457031 4.71367187 3.85664063 5.37109375 4.39453125 C7 6 7 6 8 9 C7.34 9 6.68 9 6 9 C6 8.34 6 7.68 6 7 C4.35 6.67 2.7 6.34 1 6 C1 5.34 1 4.68 1 4 C0.34 4 -0.32 4 -1 4 C-0.67 2.68 -0.34 1.36 0 0 Z " fill="#D8EBF4" transform="translate(157,192)"/>
<path d="M0 0 C4.91392865 1.36498018 6.38408718 3.76041716 9 8 C9.66 8.33 10.32 8.66 11 9 C10.67 9.99 10.34 10.98 10 12 C9.34 12 8.68 12 8 12 C7.4225 10.948125 6.845 9.89625 6.25 8.8125 C4.4338994 5.6213518 2.38008879 2.80510465 0 0 Z " fill="#3C6A9E" transform="translate(158,192)"/>
<path d="M0 0 C2.12508244 3.18762365 2.5020163 5.26512223 3 9 C1.68 9 0.36 9 -1 9 C-1.625 5.625 -1.625 5.625 -2 2 C-1.34 1.34 -0.68 0.68 0 0 Z " fill="#EEF1E8" transform="translate(102,159)"/>
<path d="M0 0 C0.33 0 0.66 0 1 0 C1.25 2.75 1.25 2.75 1 6 C-1 8.375 -1 8.375 -3 10 C-3.75 8.375 -3.75 8.375 -4 6 C-2.125 2.75 -2.125 2.75 0 0 Z " fill="#484C55" transform="translate(91,53)"/>
<path d="M0 0 C0.99 0.33 1.98 0.66 3 1 C2.01 1.33 1.02 1.66 0 2 C0 1.34 0 0.68 0 0 Z M-2 2 C-0.68 2.66 0.64 3.32 2 4 C1.67 5.65 1.34 7.3 1 9 C-0.98 7.68 -2.96 6.36 -5 5 C-4.01 4.67 -3.02 4.34 -2 4 C-2 3.34 -2 2.68 -2 2 Z " fill="#D8E7EF" transform="translate(123,192)"/>
<path d="M0 0 C2 2 2 2 2.25 4.375 C1.99345272 7.06874642 1.36770587 8.69199635 0 11 C-0.99 11 -1.98 11 -3 11 C-2.01 7.37 -1.02 3.74 0 0 Z " fill="#DBF0FB" transform="translate(177,185)"/>
<path d="M0 0 C0.66 0.33 1.32 0.66 2 1 C2 3.97 2 6.94 2 10 C1.67 9.01 1.34 8.02 1 7 C0.01 6.67 -0.98 6.34 -2 6 C-1.125 1.125 -1.125 1.125 0 0 Z " fill="#237DCA" transform="translate(136,118)"/>
<path d="M0 0 C2.73625437 1.47336774 3.38708421 2.44772966 4.4375 5.3125 C0.52538267 4.15664715 -2.4370041 2.95715038 -5.5625 0.3125 C-2.5625 -0.6875 -2.5625 -0.6875 0 0 Z " fill="#D6EFF8" transform="translate(149.5625,136.6875)"/>
<path d="M0 0 C1.485 0.99 1.485 0.99 3 2 C3.99 2 4.98 2 6 2 C6 3.32 6 4.64 6 6 C4.35 6.33 2.7 6.66 1 7 C0.67 4.69 0.34 2.38 0 0 Z " fill="#3A7ABB" transform="translate(120,200)"/>
<path d="M0 0 C2.29013653 3.4352048 2.17842973 4.985331 2 9 C2.66 9.33 3.32 9.66 4 10 C3.01 10 2.02 10 1 10 C0.67 10.99 0.34 11.98 0 13 C-0.66 11.02 -1.32 9.04 -2 7 C-1.34 7 -0.68 7 0 7 C0 4.69 0 2.38 0 0 Z " fill="#DCD9D9" transform="translate(105,170)"/>
<path d="M0 0 C2.49361571 1.20381448 4.68143083 2.45428722 7 4 C7.66 4 8.32 4 9 4 C8.67 5.65 8.34 7.3 8 9 C1.42857143 3.85714286 1.42857143 3.85714286 0 0 Z " fill="#F8FEFB" transform="translate(132,172)"/>
<path d="M0 0 C0.33 0 0.66 0 1 0 C1.268125 1.0725 1.53625 2.145 1.8125 3.25 C2.86227827 6.56508928 3.74612328 8.43877646 6 11 C1.125 10.125 1.125 10.125 0 9 C-0.07179964 7.48071962 -0.08392007 5.95832518 -0.0625 4.4375 C-0.05347656 3.61121094 -0.04445313 2.78492188 -0.03515625 1.93359375 C-0.02355469 1.29550781 -0.01195313 0.65742188 0 0 Z " fill="#CBE5F4" transform="translate(128,158)"/>
<path d="M0 0 C6.75 2.625 6.75 2.625 9 6 C8.01 6.33 7.02 6.66 6 7 C2.8125 4.6875 2.8125 4.6875 0 2 C0 1.34 0 0.68 0 0 Z " fill="#E0F4F8" transform="translate(148,186)"/>
<path d="M0 0 C1.5 1.1875 1.5 1.1875 3 3 C3.1875 5.6875 3.1875 5.6875 3 8 C3.66 8 4.32 8 5 8 C5 8.66 5 9.32 5 10 C2 9 2 9 0.83203125 7.15234375 C0.49558594 6.42144531 0.15914062 5.69054687 -0.1875 4.9375 C-0.53167969 4.20402344 -0.87585938 3.47054687 -1.23046875 2.71484375 C-1.48441406 2.14894531 -1.73835937 1.58304688 -2 1 C-1.34 0.67 -0.68 0.34 0 0 Z " fill="#E0F5FC" transform="translate(170,153)"/>
<path d="M0 0 C0.33 0.99 0.66 1.98 1 3 C0.34 3 -0.32 3 -1 3 C-1.33 5.31 -1.66 7.62 -2 10 C-2.33 10 -2.66 10 -3 10 C-3.33 7.03 -3.66 4.06 -4 1 C-2.68 0.67 -1.36 0.34 0 0 Z " fill="#414A58" transform="translate(117,134)"/>
<path d="M0 0 C1.28132813 0.19464844 2.56265625 0.38929687 3.8828125 0.58984375 C4.87023437 0.74582031 5.85765625 0.90179688 6.875 1.0625 C6.875 1.3925 6.875 1.7225 6.875 2.0625 C4.96091243 2.31229445 3.04348389 2.53658014 1.125 2.75 C0.05765625 2.87761719 -1.0096875 3.00523438 -2.109375 3.13671875 C-5.53057866 3.05251814 -6.67920823 2.37175485 -9.125 0.0625 C-6.01752306 -1.49123847 -3.38273473 -0.52278628 0 0 Z " fill="#DDDEE4" transform="translate(105.125,88.9375)"/>
<path d="M0 0 C3.3 0.33 6.6 0.66 10 1 C10 1.99 10 2.98 10 4 C6.53058454 3.54177532 3.32604951 3.10868317 0 2 C0 1.34 0 0.68 0 0 Z " fill="#F5FBFB" transform="translate(135,208)"/>
<path d="M0 0 C0.66 0.33 1.32 0.66 2 1 C1.319375 1.556875 1.319375 1.556875 0.625 2.125 C-1.47029394 4.54264685 -2.12013285 6.95430602 -3 10 C-3.66 10 -4.32 10 -5 10 C-5.3125 7.8125 -5.3125 7.8125 -5 5 C-2.5 2.1875 -2.5 2.1875 0 0 Z " fill="#417FB3" transform="translate(93,101)"/>
<path d="M0 0 C3.465 1.98 3.465 1.98 7 4 C6.01 4.66 5.02 5.32 4 6 C3.01 5.67 2.02 5.34 1 5 C0.67 3.35 0.34 1.7 0 0 Z " fill="#EBF6FA" transform="translate(153,138)"/>
<path d="M0 0 C1.98 0 3.96 0 6 0 C5.67 1.65 5.34 3.3 5 5 C3.0625 4.1875 3.0625 4.1875 1 3 C0.67 2.01 0.34 1.02 0 0 Z " fill="#F2F2F2" transform="translate(114,43)"/>
<path d="M0 0 C0.66 1.32 1.32 2.64 2 4 C-1.08809695 5.76462683 -2.23312136 6 -6 6 C-5.67 4.68 -5.34 3.36 -5 2 C-5 2.99 -5 3.98 -5 5 C-3.35 3.35 -1.7 1.7 0 0 Z " fill="#CDE4F4" transform="translate(171,199)"/>
<path d="M0 0 C2.475 0.495 2.475 0.495 5 1 C5 1.99 5 2.98 5 4 C3.35 4 1.7 4 0 4 C0 2.68 0 1.36 0 0 Z " fill="#3075B2" transform="translate(131,124)"/>
<path d="M0 0 C0.99 0.33 1.98 0.66 3 1 C2.67 1.66 2.34 2.32 2 3 C1.34 3 0.68 3 0 3 C0 3.99 0 4.98 0 6 C-0.99 6.33 -1.98 6.66 -3 7 C-3 3 -3 3 -1.5 1.25 C-1.005 0.8375 -0.51 0.425 0 0 Z " fill="#E0EAF3" transform="translate(116,109)"/>
<path d="M0 0 C2.97 0.495 2.97 0.495 6 1 C5.01 2.485 5.01 2.485 4 4 C0.375 4.6875 0.375 4.6875 -3 5 C-2.01 4.34 -1.02 3.68 0 3 C0 2.01 0 1.02 0 0 Z " fill="#2D353C" transform="translate(116,84)"/>
<path d="M0 0 C1.98 0 3.96 0 6 0 C6.33 1.32 6.66 2.64 7 4 C4 4 4 4 1.8125 2 C1.214375 1.34 0.61625 0.68 0 0 Z " fill="#474C53" transform="translate(112,182)"/>
<path d="M0 0 C1.32 0 2.64 0 4 0 C4 0.66 4 1.32 4 2 C4.99 2.33 5.98 2.66 7 3 C7.6875 5.0625 7.6875 5.0625 8 7 C6.66382648 6.02471263 5.3311249 5.04466681 4 4.0625 C3.2575 3.51722656 2.515 2.97195312 1.75 2.41015625 C1.1725 1.94480469 0.595 1.47945312 0 1 C0 0.67 0 0.34 0 0 Z " fill="#4678A5" transform="translate(136,171)"/>
<path d="M0 0 C0.99 0 1.98 0 3 0 C3 3.3 3 6.6 3 10 C1.19669467 6.39338934 0.53400897 3.91606575 0 0 Z " fill="#D3F4FB" transform="translate(92,144)"/>
<path d="M0 0 C2 4 2 4 2 7 C2.66 7 3.32 7 4 7 C4 7.66 4 8.32 4 9 C2.68 9 1.36 9 0 9 C0 6.03 0 3.06 0 0 Z " fill="#2F79BB" transform="translate(86,127)"/>
<path d="M0 0 C1.32 0.66 2.64 1.32 4 2 C3.01 3.485 3.01 3.485 2 5 C0.68 4.67 -0.64 4.34 -2 4 C-1.34 2.68 -0.68 1.36 0 0 Z " fill="#3A74BE" transform="translate(93,103)"/>
<path d="M0 0 C1.98 0.66 3.96 1.32 6 2 C6 2.66 6 3.32 6 4 C6.66 4.33 7.32 4.66 8 5 C5 5 5 5 2.3125 2.5 C1.549375 1.675 0.78625 0.85 0 0 Z " fill="#D8EEFA" transform="translate(136,210)"/>
<path d="M0 0 C0.66 0 1.32 0 2 0 C4 3 4 3 4 6 C2.68 5.67 1.36 5.34 0 5 C0 3.35 0 1.7 0 0 Z " fill="#F0FCFE" transform="translate(101,177)"/>
<path d="M0 0 C0.66 0 1.32 0 2 0 C2 1.98 2 3.96 2 6 C1.01 6 0.02 6 -1 6 C-1.042721 4.33388095 -1.04063832 2.66617115 -1 1 C-0.67 0.67 -0.34 0.34 0 0 Z " fill="#E0F2FA" transform="translate(98,162)"/>
<path d="M0 0 C0.66 0.33 1.32 0.66 2 1 C1.67 1.99 1.34 2.98 1 4 C0.34 4 -0.32 4 -1 4 C-1.33 4.99 -1.66 5.98 -2 7 C-2.99 6.01 -3.98 5.02 -5 4 C-4.360625 3.71125 -3.72125 3.4225 -3.0625 3.125 C-0.84793921 2.17176549 -0.84793921 2.17176549 0 0 Z " fill="#4880B4" transform="translate(118,102)"/>
</svg>
